<mxfile host="app.diagrams.net" agent="Mozilla/5.0 (Windows NT 10.0; Win64; x64) AppleWebKit/537.36 (KHTML, like Gecko) Chrome/133.0.0.0 Safari/537.36" version="26.0.16">
  <diagram name="Page-1" id="nyQPqH0RPwba1N3fX-8g">
    <mxGraphModel dx="1674" dy="738" grid="1" gridSize="10" guides="1" tooltips="1" connect="1" arrows="1" fold="1" page="1" pageScale="1" pageWidth="827" pageHeight="1169" math="0" shadow="0">
      <root>
        <mxCell id="0" />
        <mxCell id="1" parent="0" />
        <mxCell id="WEvWCjY_Lisq1oyiKmaW-1" value="1. Global execution context" style="text;html=1;align=center;verticalAlign=middle;resizable=0;points=[];autosize=1;strokeColor=none;fillColor=none;" vertex="1" parent="1">
          <mxGeometry x="90" y="20" width="170" height="30" as="geometry" />
        </mxCell>
        <mxCell id="WEvWCjY_Lisq1oyiKmaW-3" value="fun = defination" style="rounded=0;whiteSpace=wrap;html=1;" vertex="1" parent="1">
          <mxGeometry x="35" y="210" width="120" height="210" as="geometry" />
        </mxCell>
        <mxCell id="WEvWCjY_Lisq1oyiKmaW-5" value="" style="rounded=0;whiteSpace=wrap;html=1;" vertex="1" parent="1">
          <mxGeometry x="180" y="240" width="120" height="170" as="geometry" />
        </mxCell>
        <mxCell id="WEvWCjY_Lisq1oyiKmaW-6" value="1. Memory Creation" style="text;html=1;align=center;verticalAlign=middle;resizable=0;points=[];autosize=1;strokeColor=none;fillColor=none;" vertex="1" parent="1">
          <mxGeometry x="35" y="210" width="130" height="30" as="geometry" />
        </mxCell>
        <mxCell id="WEvWCjY_Lisq1oyiKmaW-7" value="2. Execution phase" style="text;html=1;align=center;verticalAlign=middle;resizable=0;points=[];autosize=1;strokeColor=none;fillColor=none;" vertex="1" parent="1">
          <mxGeometry x="175" y="210" width="130" height="30" as="geometry" />
        </mxCell>
        <mxCell id="WEvWCjY_Lisq1oyiKmaW-8" value="val1&amp;nbsp; = undefined" style="text;html=1;align=center;verticalAlign=middle;resizable=0;points=[];autosize=1;strokeColor=none;fillColor=none;" vertex="1" parent="1">
          <mxGeometry x="40" y="250" width="120" height="30" as="geometry" />
        </mxCell>
        <mxCell id="WEvWCjY_Lisq1oyiKmaW-9" value="val2&amp;nbsp; = undefined" style="text;html=1;align=center;verticalAlign=middle;resizable=0;points=[];autosize=1;strokeColor=none;fillColor=none;" vertex="1" parent="1">
          <mxGeometry x="40" y="280" width="120" height="30" as="geometry" />
        </mxCell>
        <mxCell id="WEvWCjY_Lisq1oyiKmaW-10" value="result1&amp;nbsp; = undefined" style="text;html=1;align=center;verticalAlign=middle;resizable=0;points=[];autosize=1;strokeColor=none;fillColor=none;" vertex="1" parent="1">
          <mxGeometry x="35" y="360" width="130" height="30" as="geometry" />
        </mxCell>
        <mxCell id="WEvWCjY_Lisq1oyiKmaW-11" value="result2&amp;nbsp; = undefined" style="text;html=1;align=center;verticalAlign=middle;resizable=0;points=[];autosize=1;strokeColor=none;fillColor=none;" vertex="1" parent="1">
          <mxGeometry x="35" y="390" width="130" height="30" as="geometry" />
        </mxCell>
        <mxCell id="WEvWCjY_Lisq1oyiKmaW-12" value="val1&amp;nbsp; = 10" style="text;html=1;align=center;verticalAlign=middle;resizable=0;points=[];autosize=1;strokeColor=none;fillColor=none;" vertex="1" parent="1">
          <mxGeometry x="195" y="250" width="80" height="30" as="geometry" />
        </mxCell>
        <mxCell id="WEvWCjY_Lisq1oyiKmaW-13" value="val2&amp;nbsp; = 20" style="text;html=1;align=center;verticalAlign=middle;resizable=0;points=[];autosize=1;strokeColor=none;fillColor=none;" vertex="1" parent="1">
          <mxGeometry x="195" y="280" width="80" height="30" as="geometry" />
        </mxCell>
        <mxCell id="WEvWCjY_Lisq1oyiKmaW-14" value="result1 = fun()" style="text;html=1;align=center;verticalAlign=middle;resizable=0;points=[];autosize=1;strokeColor=none;fillColor=none;" vertex="1" parent="1">
          <mxGeometry x="185" y="310" width="100" height="30" as="geometry" />
        </mxCell>
        <mxCell id="WEvWCjY_Lisq1oyiKmaW-22" value="" style="group" vertex="1" connectable="0" parent="1">
          <mxGeometry x="450" y="130" width="315" height="220" as="geometry" />
        </mxCell>
        <mxCell id="WEvWCjY_Lisq1oyiKmaW-20" value="" style="rounded=1;whiteSpace=wrap;html=1;" vertex="1" parent="WEvWCjY_Lisq1oyiKmaW-22">
          <mxGeometry width="315" height="220" as="geometry" />
        </mxCell>
        <mxCell id="WEvWCjY_Lisq1oyiKmaW-21" value="" style="group" vertex="1" connectable="0" parent="WEvWCjY_Lisq1oyiKmaW-22">
          <mxGeometry x="25" y="19.130434782608695" width="280" height="191.30434782608697" as="geometry" />
        </mxCell>
        <mxCell id="WEvWCjY_Lisq1oyiKmaW-16" value="" style="rounded=0;whiteSpace=wrap;html=1;" vertex="1" parent="WEvWCjY_Lisq1oyiKmaW-21">
          <mxGeometry x="5" y="28.695652173913043" width="120" height="162.6086956521739" as="geometry" />
        </mxCell>
        <mxCell id="WEvWCjY_Lisq1oyiKmaW-17" value="" style="rounded=0;whiteSpace=wrap;html=1;" vertex="1" parent="WEvWCjY_Lisq1oyiKmaW-21">
          <mxGeometry x="155" y="28.695652173913043" width="120" height="162.6086956521739" as="geometry" />
        </mxCell>
        <mxCell id="WEvWCjY_Lisq1oyiKmaW-18" value="1. Memory Creation" style="text;html=1;align=center;verticalAlign=middle;resizable=0;points=[];autosize=1;strokeColor=none;fillColor=none;" vertex="1" parent="WEvWCjY_Lisq1oyiKmaW-21">
          <mxGeometry width="130" height="30" as="geometry" />
        </mxCell>
        <mxCell id="WEvWCjY_Lisq1oyiKmaW-19" value="2. Execution phase" style="text;html=1;align=center;verticalAlign=middle;resizable=0;points=[];autosize=1;strokeColor=none;fillColor=none;" vertex="1" parent="WEvWCjY_Lisq1oyiKmaW-21">
          <mxGeometry x="150" width="130" height="30" as="geometry" />
        </mxCell>
        <mxCell id="WEvWCjY_Lisq1oyiKmaW-25" value="num1 = undefined" style="text;html=1;align=center;verticalAlign=middle;resizable=0;points=[];autosize=1;strokeColor=none;fillColor=none;" vertex="1" parent="WEvWCjY_Lisq1oyiKmaW-21">
          <mxGeometry x="5" y="40.86956521739131" width="120" height="30" as="geometry" />
        </mxCell>
        <mxCell id="WEvWCjY_Lisq1oyiKmaW-26" value="num2 = undefined" style="text;html=1;align=center;verticalAlign=middle;resizable=0;points=[];autosize=1;strokeColor=none;fillColor=none;" vertex="1" parent="WEvWCjY_Lisq1oyiKmaW-21">
          <mxGeometry x="5" y="70.86956521739131" width="120" height="30" as="geometry" />
        </mxCell>
        <mxCell id="WEvWCjY_Lisq1oyiKmaW-27" value="result = undefined" style="text;html=1;align=center;verticalAlign=middle;resizable=0;points=[];autosize=1;strokeColor=none;fillColor=none;" vertex="1" parent="WEvWCjY_Lisq1oyiKmaW-21">
          <mxGeometry x="5" y="100.86956521739131" width="120" height="30" as="geometry" />
        </mxCell>
        <mxCell id="WEvWCjY_Lisq1oyiKmaW-28" value="num1 = 10" style="text;html=1;align=center;verticalAlign=middle;resizable=0;points=[];autosize=1;strokeColor=none;fillColor=none;" vertex="1" parent="WEvWCjY_Lisq1oyiKmaW-21">
          <mxGeometry x="180" y="40.86956521739131" width="80" height="30" as="geometry" />
        </mxCell>
        <mxCell id="WEvWCjY_Lisq1oyiKmaW-29" value="num12= 20" style="text;html=1;align=center;verticalAlign=middle;resizable=0;points=[];autosize=1;strokeColor=none;fillColor=none;" vertex="1" parent="WEvWCjY_Lisq1oyiKmaW-21">
          <mxGeometry x="180" y="70.86956521739131" width="80" height="30" as="geometry" />
        </mxCell>
        <mxCell id="WEvWCjY_Lisq1oyiKmaW-30" value="result = 30" style="text;html=1;align=center;verticalAlign=middle;resizable=0;points=[];autosize=1;strokeColor=none;fillColor=none;" vertex="1" parent="WEvWCjY_Lisq1oyiKmaW-21">
          <mxGeometry x="175" y="100.86956521739131" width="80" height="30" as="geometry" />
        </mxCell>
        <mxCell id="WEvWCjY_Lisq1oyiKmaW-23" value="2. functional execution context" style="text;html=1;align=center;verticalAlign=middle;resizable=0;points=[];autosize=1;strokeColor=none;fillColor=none;" vertex="1" parent="1">
          <mxGeometry x="517.5" y="100" width="180" height="30" as="geometry" />
        </mxCell>
        <mxCell id="WEvWCjY_Lisq1oyiKmaW-32" value="result2 =&amp;nbsp;" style="text;html=1;align=center;verticalAlign=middle;resizable=0;points=[];autosize=1;strokeColor=none;fillColor=none;" vertex="1" parent="1">
          <mxGeometry x="200" y="340" width="70" height="30" as="geometry" />
        </mxCell>
        <mxCell id="WEvWCjY_Lisq1oyiKmaW-33" value="" style="group" vertex="1" connectable="0" parent="1">
          <mxGeometry x="457.5" y="430" width="315" height="220" as="geometry" />
        </mxCell>
        <mxCell id="WEvWCjY_Lisq1oyiKmaW-34" value="" style="rounded=1;whiteSpace=wrap;html=1;" vertex="1" parent="WEvWCjY_Lisq1oyiKmaW-33">
          <mxGeometry width="315" height="220" as="geometry" />
        </mxCell>
        <mxCell id="WEvWCjY_Lisq1oyiKmaW-35" value="" style="group" vertex="1" connectable="0" parent="WEvWCjY_Lisq1oyiKmaW-33">
          <mxGeometry x="25" y="19.130434782608695" width="280" height="191.30434782608697" as="geometry" />
        </mxCell>
        <mxCell id="WEvWCjY_Lisq1oyiKmaW-36" value="" style="rounded=0;whiteSpace=wrap;html=1;" vertex="1" parent="WEvWCjY_Lisq1oyiKmaW-35">
          <mxGeometry x="5" y="28.695652173913043" width="120" height="162.6086956521739" as="geometry" />
        </mxCell>
        <mxCell id="WEvWCjY_Lisq1oyiKmaW-37" value="" style="rounded=0;whiteSpace=wrap;html=1;" vertex="1" parent="WEvWCjY_Lisq1oyiKmaW-35">
          <mxGeometry x="155" y="28.695652173913043" width="120" height="162.6086956521739" as="geometry" />
        </mxCell>
        <mxCell id="WEvWCjY_Lisq1oyiKmaW-38" value="1. Memory Creation" style="text;html=1;align=center;verticalAlign=middle;resizable=0;points=[];autosize=1;strokeColor=none;fillColor=none;" vertex="1" parent="WEvWCjY_Lisq1oyiKmaW-35">
          <mxGeometry width="130" height="30" as="geometry" />
        </mxCell>
        <mxCell id="WEvWCjY_Lisq1oyiKmaW-39" value="2. Execution phase" style="text;html=1;align=center;verticalAlign=middle;resizable=0;points=[];autosize=1;strokeColor=none;fillColor=none;" vertex="1" parent="WEvWCjY_Lisq1oyiKmaW-35">
          <mxGeometry x="150" width="130" height="30" as="geometry" />
        </mxCell>
        <mxCell id="WEvWCjY_Lisq1oyiKmaW-40" value="num1 = undefined" style="text;html=1;align=center;verticalAlign=middle;resizable=0;points=[];autosize=1;strokeColor=none;fillColor=none;" vertex="1" parent="WEvWCjY_Lisq1oyiKmaW-35">
          <mxGeometry x="5" y="40.86956521739131" width="120" height="30" as="geometry" />
        </mxCell>
        <mxCell id="WEvWCjY_Lisq1oyiKmaW-41" value="num2 = undefined" style="text;html=1;align=center;verticalAlign=middle;resizable=0;points=[];autosize=1;strokeColor=none;fillColor=none;" vertex="1" parent="WEvWCjY_Lisq1oyiKmaW-35">
          <mxGeometry x="5" y="70.86956521739131" width="120" height="30" as="geometry" />
        </mxCell>
        <mxCell id="WEvWCjY_Lisq1oyiKmaW-42" value="result = undefined" style="text;html=1;align=center;verticalAlign=middle;resizable=0;points=[];autosize=1;strokeColor=none;fillColor=none;" vertex="1" parent="WEvWCjY_Lisq1oyiKmaW-35">
          <mxGeometry x="5" y="100.86956521739131" width="120" height="30" as="geometry" />
        </mxCell>
        <mxCell id="WEvWCjY_Lisq1oyiKmaW-43" value="num1 = 10" style="text;html=1;align=center;verticalAlign=middle;resizable=0;points=[];autosize=1;strokeColor=none;fillColor=none;" vertex="1" parent="WEvWCjY_Lisq1oyiKmaW-35">
          <mxGeometry x="180" y="40.86956521739131" width="80" height="30" as="geometry" />
        </mxCell>
        <mxCell id="WEvWCjY_Lisq1oyiKmaW-44" value="num12= 20" style="text;html=1;align=center;verticalAlign=middle;resizable=0;points=[];autosize=1;strokeColor=none;fillColor=none;" vertex="1" parent="WEvWCjY_Lisq1oyiKmaW-35">
          <mxGeometry x="180" y="70.86956521739131" width="80" height="30" as="geometry" />
        </mxCell>
        <mxCell id="WEvWCjY_Lisq1oyiKmaW-45" value="result = 30" style="text;html=1;align=center;verticalAlign=middle;resizable=0;points=[];autosize=1;strokeColor=none;fillColor=none;" vertex="1" parent="WEvWCjY_Lisq1oyiKmaW-35">
          <mxGeometry x="175" y="100.86956521739131" width="80" height="30" as="geometry" />
        </mxCell>
        <mxCell id="WEvWCjY_Lisq1oyiKmaW-46" value="2. functional execution context" style="text;html=1;align=center;verticalAlign=middle;resizable=0;points=[];autosize=1;strokeColor=none;fillColor=none;" vertex="1" parent="1">
          <mxGeometry x="525" y="400" width="180" height="30" as="geometry" />
        </mxCell>
        <mxCell id="WEvWCjY_Lisq1oyiKmaW-47" style="edgeStyle=orthogonalEdgeStyle;rounded=0;orthogonalLoop=1;jettySize=auto;html=1;entryX=1;entryY=0.653;entryDx=0;entryDy=0;entryPerimeter=0;" edge="1" parent="1" source="WEvWCjY_Lisq1oyiKmaW-34" target="WEvWCjY_Lisq1oyiKmaW-5">
          <mxGeometry relative="1" as="geometry" />
        </mxCell>
        <mxCell id="WEvWCjY_Lisq1oyiKmaW-50" value="fun2 = defication" style="text;html=1;align=center;verticalAlign=middle;resizable=0;points=[];autosize=1;strokeColor=none;fillColor=none;" vertex="1" parent="1">
          <mxGeometry x="65" y="118" width="110" height="30" as="geometry" />
        </mxCell>
        <mxCell id="WEvWCjY_Lisq1oyiKmaW-51" value="fun2 = defication" style="text;html=1;align=center;verticalAlign=middle;resizable=0;points=[];autosize=1;strokeColor=none;fillColor=none;" vertex="1" parent="1">
          <mxGeometry x="40" y="330" width="110" height="30" as="geometry" />
        </mxCell>
        <mxCell id="WEvWCjY_Lisq1oyiKmaW-52" value="" style="group" vertex="1" connectable="0" parent="1">
          <mxGeometry x="880" y="320" width="315" height="220" as="geometry" />
        </mxCell>
        <mxCell id="WEvWCjY_Lisq1oyiKmaW-53" value="" style="rounded=1;whiteSpace=wrap;html=1;" vertex="1" parent="WEvWCjY_Lisq1oyiKmaW-52">
          <mxGeometry width="315" height="220" as="geometry" />
        </mxCell>
        <mxCell id="WEvWCjY_Lisq1oyiKmaW-54" value="" style="group" vertex="1" connectable="0" parent="WEvWCjY_Lisq1oyiKmaW-52">
          <mxGeometry x="25" y="19.130434782608695" width="280" height="191.30434782608697" as="geometry" />
        </mxCell>
        <mxCell id="WEvWCjY_Lisq1oyiKmaW-55" value="" style="rounded=0;whiteSpace=wrap;html=1;" vertex="1" parent="WEvWCjY_Lisq1oyiKmaW-54">
          <mxGeometry x="5" y="28.695652173913043" width="120" height="162.6086956521739" as="geometry" />
        </mxCell>
        <mxCell id="WEvWCjY_Lisq1oyiKmaW-56" value="" style="rounded=0;whiteSpace=wrap;html=1;" vertex="1" parent="WEvWCjY_Lisq1oyiKmaW-54">
          <mxGeometry x="155" y="28.695652173913043" width="120" height="162.6086956521739" as="geometry" />
        </mxCell>
        <mxCell id="WEvWCjY_Lisq1oyiKmaW-57" value="1. Memory Creation" style="text;html=1;align=center;verticalAlign=middle;resizable=0;points=[];autosize=1;strokeColor=none;fillColor=none;" vertex="1" parent="WEvWCjY_Lisq1oyiKmaW-54">
          <mxGeometry width="130" height="30" as="geometry" />
        </mxCell>
        <mxCell id="WEvWCjY_Lisq1oyiKmaW-58" value="2. Execution phase" style="text;html=1;align=center;verticalAlign=middle;resizable=0;points=[];autosize=1;strokeColor=none;fillColor=none;" vertex="1" parent="WEvWCjY_Lisq1oyiKmaW-54">
          <mxGeometry x="150" width="130" height="30" as="geometry" />
        </mxCell>
        <mxCell id="WEvWCjY_Lisq1oyiKmaW-59" value="num1 = undefined" style="text;html=1;align=center;verticalAlign=middle;resizable=0;points=[];autosize=1;strokeColor=none;fillColor=none;" vertex="1" parent="WEvWCjY_Lisq1oyiKmaW-54">
          <mxGeometry x="5" y="40.86956521739131" width="120" height="30" as="geometry" />
        </mxCell>
        <mxCell id="WEvWCjY_Lisq1oyiKmaW-60" value="num2 = undefined" style="text;html=1;align=center;verticalAlign=middle;resizable=0;points=[];autosize=1;strokeColor=none;fillColor=none;" vertex="1" parent="WEvWCjY_Lisq1oyiKmaW-54">
          <mxGeometry x="5" y="70.86956521739131" width="120" height="30" as="geometry" />
        </mxCell>
        <mxCell id="WEvWCjY_Lisq1oyiKmaW-61" value="result = undefined" style="text;html=1;align=center;verticalAlign=middle;resizable=0;points=[];autosize=1;strokeColor=none;fillColor=none;" vertex="1" parent="WEvWCjY_Lisq1oyiKmaW-54">
          <mxGeometry x="5" y="100.86956521739131" width="120" height="30" as="geometry" />
        </mxCell>
        <mxCell id="WEvWCjY_Lisq1oyiKmaW-62" value="num1 = 10" style="text;html=1;align=center;verticalAlign=middle;resizable=0;points=[];autosize=1;strokeColor=none;fillColor=none;" vertex="1" parent="WEvWCjY_Lisq1oyiKmaW-54">
          <mxGeometry x="180" y="40.86956521739131" width="80" height="30" as="geometry" />
        </mxCell>
        <mxCell id="WEvWCjY_Lisq1oyiKmaW-63" value="num12= 20" style="text;html=1;align=center;verticalAlign=middle;resizable=0;points=[];autosize=1;strokeColor=none;fillColor=none;" vertex="1" parent="WEvWCjY_Lisq1oyiKmaW-54">
          <mxGeometry x="180" y="70.86956521739131" width="80" height="30" as="geometry" />
        </mxCell>
        <mxCell id="WEvWCjY_Lisq1oyiKmaW-64" value="result = 30" style="text;html=1;align=center;verticalAlign=middle;resizable=0;points=[];autosize=1;strokeColor=none;fillColor=none;" vertex="1" parent="WEvWCjY_Lisq1oyiKmaW-54">
          <mxGeometry x="175" y="100.86956521739131" width="80" height="30" as="geometry" />
        </mxCell>
        <mxCell id="WEvWCjY_Lisq1oyiKmaW-65" value="2. functional execution context" style="text;html=1;align=center;verticalAlign=middle;resizable=0;points=[];autosize=1;strokeColor=none;fillColor=none;" vertex="1" parent="1">
          <mxGeometry x="947.5" y="290" width="180" height="30" as="geometry" />
        </mxCell>
        <mxCell id="WEvWCjY_Lisq1oyiKmaW-67" style="edgeStyle=orthogonalEdgeStyle;rounded=0;orthogonalLoop=1;jettySize=auto;html=1;entryX=0;entryY=0.5;entryDx=0;entryDy=0;" edge="1" parent="1" source="WEvWCjY_Lisq1oyiKmaW-20" target="WEvWCjY_Lisq1oyiKmaW-53">
          <mxGeometry relative="1" as="geometry" />
        </mxCell>
        <mxCell id="WEvWCjY_Lisq1oyiKmaW-68" style="edgeStyle=orthogonalEdgeStyle;rounded=0;orthogonalLoop=1;jettySize=auto;html=1;entryX=1;entryY=0.5;entryDx=0;entryDy=0;" edge="1" parent="1" source="WEvWCjY_Lisq1oyiKmaW-20" target="WEvWCjY_Lisq1oyiKmaW-5">
          <mxGeometry relative="1" as="geometry" />
        </mxCell>
        <mxCell id="WEvWCjY_Lisq1oyiKmaW-69" value="" style="rounded=1;whiteSpace=wrap;html=1;" vertex="1" parent="1">
          <mxGeometry x="450" y="840" width="210" height="390" as="geometry" />
        </mxCell>
        <mxCell id="WEvWCjY_Lisq1oyiKmaW-70" value="Global" style="text;html=1;align=center;verticalAlign=middle;resizable=0;points=[];autosize=1;strokeColor=none;fillColor=none;" vertex="1" parent="1">
          <mxGeometry x="530" y="1160" width="60" height="30" as="geometry" />
        </mxCell>
        <mxCell id="WEvWCjY_Lisq1oyiKmaW-71" value="fun" style="text;html=1;align=center;verticalAlign=middle;resizable=0;points=[];autosize=1;strokeColor=none;fillColor=none;" vertex="1" parent="1">
          <mxGeometry x="732.5" y="1169" width="40" height="30" as="geometry" />
        </mxCell>
        <mxCell id="WEvWCjY_Lisq1oyiKmaW-72" value="fun2" style="text;html=1;align=center;verticalAlign=middle;resizable=0;points=[];autosize=1;strokeColor=none;fillColor=none;" vertex="1" parent="1">
          <mxGeometry x="722.5" y="1120" width="50" height="30" as="geometry" />
        </mxCell>
        <mxCell id="WEvWCjY_Lisq1oyiKmaW-73" value="check" style="text;html=1;align=center;verticalAlign=middle;resizable=0;points=[];autosize=1;strokeColor=none;fillColor=none;" vertex="1" parent="1">
          <mxGeometry x="810" y="1100" width="50" height="30" as="geometry" />
        </mxCell>
        <mxCell id="WEvWCjY_Lisq1oyiKmaW-75" value="check2" style="text;html=1;align=center;verticalAlign=middle;resizable=0;points=[];autosize=1;strokeColor=none;fillColor=none;" vertex="1" parent="1">
          <mxGeometry x="170" y="1120" width="60" height="30" as="geometry" />
        </mxCell>
      </root>
    </mxGraphModel>
  </diagram>
</mxfile>
